<svg width="28" height="28" viewBox="0 0 28 28" fill="none" xmlns="http://www.w3.org/2000/svg">
<g opacity="0.6">
<path d="M19.8333 10.6983C19.6147 10.481 19.319 10.3591 19.0108 10.3591C18.7026 10.3591 18.4069 10.481 18.1883 10.6983L14 14.8283L9.86998 10.6983C9.65139 10.481 9.3557 10.3591 9.04748 10.3591C8.73926 10.3591 8.44357 10.481 8.22498 10.6983C8.11563 10.8068 8.02884 10.9358 7.96961 11.078C7.91038 11.2202 7.87988 11.3727 7.87988 11.5267C7.87988 11.6807 7.91038 11.8332 7.96961 11.9753C8.02884 12.1175 8.11563 12.2465 8.22498 12.355L13.1716 17.3017C13.2801 17.411 13.4091 17.4978 13.5513 17.557C13.6935 17.6163 13.846 17.6468 14 17.6468C14.154 17.6468 14.3065 17.6163 14.4487 17.557C14.5908 17.4978 14.7199 17.411 14.8283 17.3017L19.8333 12.355C19.9427 12.2465 20.0295 12.1175 20.0887 11.9753C20.1479 11.8332 20.1784 11.6807 20.1784 11.5267C20.1784 11.3727 20.1479 11.2202 20.0887 11.078C20.0295 10.9358 19.9427 10.8068 19.8333 10.6983Z" fill="black"/>
</g>
</svg>
